# xmcd CD database file
#
# Track frame offsets:
#	150
#	25646
#	59173
#	75354
#	101906
#	127293
#	153824
#	175657
#
# Disc length: 2701 seconds
#
# Revision: 1
# Processed by: cddbd v1.5.2PL0 Copyright (c) Steve Scherf et al.
# Submitted via: CDex 1.70beta2
#
DISCID=600a8b08
DTITLE=Juan Esteban Cuacci&Lila Horoviz - Night Time CafeNo.8-Azul Noche-
DYEAR=1900
DGENRE=Jazz
TTITLE0=Verano Porteno
TTITLE1=Zamba Del Laurel
TTITLE2=Se Que Llegas
TTITLE3=A La Luna Nueva
TTITLE4=Quieres Un Mate
TTITLE5=Invierno Porteno
TTITLE6=Nana Para Javier
TTITLE7=Azul Noche
EXTD=
EXTT0=
EXTT1=
EXTT2=
EXTT3=
EXTT4=
EXTT5=
EXTT6=
EXTT7=
PLAYORDER=
